<svg width="33" height="32" viewBox="0 0 33 32" fill="none" xmlns="http://www.w3.org/2000/svg">
<g clip-path="url(#clip0_1_122)">
<g clip-path="url(#clip1_1_122)">
<path d="M11.7753 21.6057H21.2246V26.3304H11.7753V21.6057Z" fill="#E74040"/>
<path d="M16.5 3.65198C10.7686 3.65198 6.10571 8.3149 6.10571 14.0462V28.2202C6.10571 30.3044 7.8013 31.9999 9.88544 31.9999H23.1145C25.1986 31.9999 26.8942 30.3044 26.8942 28.2202V14.0462C26.8942 8.31484 22.2314 3.65198 16.5 3.65198V3.65198ZM10.8304 12.1564H22.1696V14.0462H20.2797V15.9361H18.3898V14.0462H10.8304V12.1564ZM23.1145 28.2202H9.88544V19.7158H23.1145V28.2202Z" fill="#E74040"/>
<path d="M26.2047 1.83877L20.8415 0L20.0571 2.288C21.9523 2.86245 23.655 3.88336 25.0427 5.22799L26.2047 1.83877Z" fill="#E74040"/>
<path d="M12.9429 2.288L12.1584 0L6.79529 1.83877L7.9573 5.22799C9.34497 3.88342 11.0477 2.86245 12.9429 2.288V2.288Z" fill="#E74040"/>
</g>
</g>
<defs>
<clipPath id="clip0_1_122">
<rect width="32" height="32" fill="white" transform="translate(0.5)"/>
</clipPath>
<clipPath id="clip1_1_122">
<rect width="20.7885" height="32" fill="white" transform="translate(6.10571)"/>
</clipPath>
</defs>
</svg>
