<svg width="33" height="32" viewBox="0 0 33 32" fill="none" xmlns="http://www.w3.org/2000/svg">
<g clip-path="url(#clip0_1_83)">
<g clip-path="url(#clip1_1_83)">
<path d="M2.21429 20.0001C2.21429 20.3156 2.47015 20.5715 2.78572 20.5715H30.2143C30.5299 20.5715 30.7857 20.3156 30.7857 20.0001V2.28577H2.21429V20.0001Z" fill="#E74040"/>
<path d="M31.9286 0H1.07143C0.755859 0 0.5 0.255859 0.5 0.571429C0.5 0.886998 0.755859 1.14286 1.07143 1.14286H31.9286C32.2441 1.14286 32.5 0.886998 32.5 0.571429C32.5 0.255859 32.2441 0 31.9286 0Z" fill="#E74040"/>
<path d="M21.0714 29.7142H17.0714V22.8571H17.6429C17.9584 22.8571 18.2143 22.6012 18.2143 22.2857V21.7142H14.7857V22.2857C14.7857 22.6012 15.0416 22.8571 15.3572 22.8571H15.9286V29.7142H11.9286C10.9819 29.7142 10.2143 30.4818 10.2143 31.4285V32H22.7857V31.4285C22.7857 30.4818 22.0181 29.7142 21.0714 29.7142Z" fill="#E74040"/>
</g>
</g>
<defs>
<clipPath id="clip0_1_83">
<rect width="32" height="32" fill="white" transform="translate(0.5)"/>
</clipPath>
<clipPath id="clip1_1_83">
<rect width="32" height="32" fill="white" transform="translate(0.5)"/>
</clipPath>
</defs>
</svg>
