<svg width="33" height="32" viewBox="0 0 33 32" fill="none" xmlns="http://www.w3.org/2000/svg">
<g clip-path="url(#clip0_1_107)">
<g clip-path="url(#clip1_1_107)">
<g clip-path="url(#clip2_1_107)">
<g clip-path="url(#clip3_1_107)">
<path d="M32.5 21.874C32.5 20.6533 31.7139 19.6225 30.625 19.2342V9.52203L32.5 8.74897L16.5 2.32935L0.5 8.74897L16.5 15.1687L28.75 10.2749V19.2342C27.6611 19.6225 26.875 20.6533 26.875 21.874C26.875 22.9915 27.535 23.9507 28.4813 24.404L26.9236 29.0773L28.7015 29.6706L29.6875 26.7125L30.6735 29.6706L32.4514 29.0773L30.8937 24.404C31.84 23.9508 32.5 22.9915 32.5 21.874Z" fill="#E74040"/>
</g>
</g>
<g clip-path="url(#clip4_1_107)">
<g clip-path="url(#clip5_1_107)">
<path d="M16.5 17.1893L8.0625 13.8013V16.249C8.0625 18.9215 11.6898 20.9365 16.5 20.9365C21.3102 20.9365 24.9375 18.9215 24.9375 16.249V13.8013L16.5 17.1893Z" fill="#E74040"/>
</g>
</g>
</g>
</g>
<defs>
<clipPath id="clip0_1_107">
<rect width="32" height="32" fill="white" transform="translate(0.5)"/>
</clipPath>
<clipPath id="clip1_1_107">
<rect width="32" height="32" fill="white" transform="translate(0.5)"/>
</clipPath>
<clipPath id="clip2_1_107">
<rect width="32" height="27.3413" fill="white" transform="translate(0.5 2.32935)"/>
</clipPath>
<clipPath id="clip3_1_107">
<rect width="32" height="27.3413" fill="white" transform="translate(0.5 2.32935)"/>
</clipPath>
<clipPath id="clip4_1_107">
<rect width="16.875" height="7.13525" fill="white" transform="translate(8.0625 13.8013)"/>
</clipPath>
<clipPath id="clip5_1_107">
<rect width="16.875" height="7.13525" fill="white" transform="translate(8.0625 13.8013)"/>
</clipPath>
</defs>
</svg>
